<svg width="80" height="80" viewBox="0 0 80 80" fill="none" xmlns="http://www.w3.org/2000/svg">
<path d="M50.6773 68.3489V61.9321H29.3227V68.3489C29.4113 73.6909 26.3743 78.8282 26.3743 78.8282H53.6258C53.6258 78.8282 50.5887 73.691 50.6773 68.3489Z" fill="#ACACAC"/>
<path d="M29.322 63.198H50.6772V66.3716H29.322V63.198Z" fill="#9C9C9C"/>
<path d="M77.4554 63.1987H2.54425C1.48076 63.1987 0.618652 62.3366 0.618652 61.2731V15.2198C0.618652 14.1563 1.48076 13.2942 2.54425 13.2942H77.4554C78.5188 13.2942 79.381 14.1563 79.381 15.2198V61.2733C79.381 62.3366 78.5188 63.1987 77.4554 63.1987Z" fill="#ACACAC"/>
<path d="M79.3807 15.22V61.2736C79.3807 62.3368 78.519 63.1984 77.4543 63.1984H74.2822C75.3454 63.1984 76.207 62.3368 76.207 61.2736V15.22C76.207 14.1568 75.3454 13.2936 74.2822 13.2936H77.4543C78.519 13.2936 79.3807 14.1568 79.3807 15.22Z" fill="#9C9C9C"/>
<path d="M6.74878 54.0045V20.7245C6.74878 19.7485 7.5023 18.9573 8.4319 18.9573H71.5679C72.4975 18.9573 73.251 19.7485 73.251 20.7245V54.0045H6.74878Z" fill="#C4E2FF"/>
<path d="M73.2517 20.7244V54.0043H70.0781V20.7244C70.0781 19.7486 69.3244 18.9568 68.3945 18.9568H71.5681C72.4979 18.9568 73.2517 19.7486 73.2517 20.7244Z" fill="#A5D5F9"/>
<path d="M58.112 80H21.8888C21.2417 80 20.717 79.4754 20.717 78.8283C20.717 78.1811 21.2417 77.6565 21.8888 77.6565H58.112C58.7591 77.6565 59.2837 78.1811 59.2837 78.8283C59.2837 79.4754 58.7591 80 58.112 80Z" fill="#5A5A5A"/>
<path d="M65.9975 54.0046H14.0015V1.29348C14.0015 0.579489 14.5803 0.000793457 15.2942 0.000793457H64.7047C65.4187 0.000793457 65.9974 0.579645 65.9974 1.29348V54.0046H65.9975Z" fill="#EAF6FF"/>
<path d="M65.9982 1.29332V54.0051H62.8246V1.29332C62.8246 0.579321 62.2454 0 61.5312 0H64.7049C65.419 0 65.9982 0.579164 65.9982 1.29332Z" fill="#D8ECFE"/>
<path d="M33.7116 8.49921C32.1805 8.49921 30.9394 9.74034 30.9394 11.2714V22.1329C30.9394 22.5296 30.9394 23.2678 29.4869 23.9993C29.0847 24.2018 28.6416 24.3002 28.1326 24.3002C28.1309 24.3002 28.129 24.3002 28.1275 24.3002C27.5863 24.2996 27.1207 24.1698 26.7035 23.9032C25.5947 23.1949 25.5044 22.6876 25.5044 22.1443V11.2714C25.5044 9.74034 24.2633 8.49921 22.7322 8.49921C21.2011 8.49921 19.96 9.74034 19.96 11.2714V22.1445C19.96 24.8186 21.2245 26.9825 23.7185 28.5758C25.0332 29.4157 26.514 29.8428 28.1201 29.845H28.1326C29.5089 29.845 30.8036 29.5444 31.981 28.9515C34.885 27.4891 36.4843 25.0675 36.4843 22.1331V11.2716C36.4839 9.74034 35.2427 8.49921 33.7116 8.49921Z" fill="#97D729"/>
<path d="M59.4755 25.5081L54.2375 18.6062L58.5934 12.8294C59.5152 11.6069 59.2714 9.86859 58.0489 8.9468C56.826 8.02454 55.0879 8.26874 54.1663 9.49128L50.7541 14.0165L47.3146 9.4844C46.3889 8.26483 44.6498 8.02657 43.4303 8.95195C42.2105 9.87765 41.9723 11.6167 42.8978 12.8363L47.2851 18.6171L42.2947 25.2354C41.373 26.458 41.6167 28.1962 42.8392 29.118C43.339 29.495 43.9249 29.6769 44.5063 29.6769C45.3466 29.6769 46.177 29.2963 46.722 28.5736L50.7685 23.207L55.0587 28.8601C55.6041 29.5786 56.4317 29.9566 57.2691 29.9566C57.8531 29.9566 58.442 29.7727 58.943 29.3925C60.1628 28.4667 60.4012 26.7276 59.4755 25.5081Z" fill="#97D729"/>
<path d="M36.4839 11.271V22.1326C36.4839 25.0681 34.886 27.4896 31.9806 28.951C30.8048 29.5444 29.5099 29.8444 28.1327 29.8444H28.12C27.6138 29.8428 27.1203 29.8016 26.6411 29.7175C27.4567 29.5763 28.2342 29.3209 28.9657 28.951C31.8711 27.4896 33.4691 25.0681 33.4691 22.1326V11.271C33.4691 10.2951 32.966 9.43819 32.2043 8.9448C32.6376 8.66232 33.1549 8.4989 33.7119 8.4989C35.243 8.4989 36.4839 9.73972 36.4839 11.271Z" fill="#8BC727"/>
<path d="M58.944 29.3922C58.4427 29.7731 57.854 29.9572 57.27 29.9572C56.74 29.9572 56.2132 29.8049 55.7609 29.5097C55.8181 29.4732 55.8735 29.4336 55.9292 29.3922C57.1494 28.4672 57.3875 26.728 56.4624 25.5078L51.6571 19.1769C51.4012 18.8396 51.4004 18.3734 51.6552 18.0353L55.5801 12.8293C56.5021 11.6075 56.2577 9.86828 55.0358 8.94634C54.9819 8.90666 54.9279 8.86853 54.8724 8.83369C55.8214 8.21797 57.0939 8.22438 58.0507 8.94634C59.2724 9.86828 59.5169 11.6073 58.595 12.8293L54.2393 18.6068L59.4773 25.5078C60.4023 26.728 60.1642 28.4672 58.944 29.3922Z" fill="#8BC727"/>
<path d="M60.0389 37.134H19.9594C19.3122 37.134 18.7876 36.6094 18.7876 35.9622C18.7876 35.3151 19.3122 34.7905 19.9594 34.7905H60.0389C60.686 34.7905 61.2106 35.3151 61.2106 35.9622C61.2106 36.6094 60.686 37.134 60.0389 37.134Z" fill="#96CCED"/>
<path d="M60.0389 41.9615H19.9594C19.3122 41.9615 18.7876 41.4369 18.7876 40.7898C18.7876 40.1426 19.3122 39.618 19.9594 39.618H60.0389C60.686 39.618 61.2106 40.1426 61.2106 40.7898C61.2106 41.4369 60.686 41.9615 60.0389 41.9615Z" fill="#96CCED"/>
<path d="M60.0389 46.789H19.9594C19.3122 46.789 18.7876 46.2644 18.7876 45.6173C18.7876 44.9701 19.3122 44.4455 19.9594 44.4455H60.0389C60.686 44.4455 61.2106 44.9701 61.2106 45.6173C61.2106 46.2644 60.686 46.789 60.0389 46.789Z" fill="#96CCED"/>
<path d="M79.381 54.0045V61.2736C79.381 62.3368 78.5193 63.1984 77.4546 63.1984H2.54503C1.48029 63.1984 0.618652 62.3368 0.618652 61.2736V54.0045H79.381Z" fill="#5A5A5A"/>
<path d="M79.3807 54.0051V61.2743C79.3807 62.3375 78.519 63.1991 77.4543 63.1991H74.2822C75.3454 63.1991 76.207 62.3375 76.207 61.2743V54.0051H79.3807Z" fill="#444444"/>
<path d="M42.3798 59.7732H37.6193C36.9721 59.7732 36.4475 59.2485 36.4475 58.6014C36.4475 57.9543 36.9721 57.4296 37.6193 57.4296H42.3798C43.0269 57.4296 43.5515 57.9543 43.5515 58.6014C43.5515 59.2485 43.0269 59.7732 42.3798 59.7732Z" fill="#333333"/>
</svg>
